<svg width="31" height="36" viewBox="0 0 31 36" fill="none" xmlns="http://www.w3.org/2000/svg">
<g clip-path="url(#clip0_2_1152)">
<path d="M0 9.00053V26.9995L15.501 36L31 26.9995V9.00053L15.501 0L0 9.00053Z" fill="url(#paint0_linear_2_1152)"/>
<path style="mix-blend-mode:multiply" d="M0 9.00053L31 26.9995L15.501 36L0 26.9995V9.00053Z" fill="url(#paint1_linear_2_1152)"/>
<path style="mix-blend-mode:overlay" opacity="0.44" d="M15.501 17.9989L0 26.9995L15.501 36L31 26.9995L15.501 17.9989Z" fill="url(#paint2_linear_2_1152)"/>
<path d="M15.501 17.9989L31 9.00053L15.501 0L0 9.00053L15.501 17.9989Z" fill="url(#paint3_linear_2_1152)"/>
<path d="M15.501 0V17.9989L0 9.00053L15.501 0Z" fill="url(#paint4_linear_2_1152)"/>
<path style="mix-blend-mode:multiply" d="M15.501 36V17.9989L0 26.9995L15.501 36Z" fill="url(#paint5_linear_2_1152)"/>
<path opacity="0.4" d="M30.9999 9.00053L15.501 36V17.9989L30.9999 9.00053Z" fill="url(#paint6_linear_2_1152)"/>
<path opacity="0.23" d="M0 9.00053L15.501 36L0 26.9995V9.00053Z" fill="url(#paint7_linear_2_1152)"/>
</g>
<defs>
<linearGradient id="paint0_linear_2_1152" x1="-6.41112" y1="41.4134" x2="26.2315" y2="6.92528" gradientUnits="userSpaceOnUse">
<stop stop-color="#4BCFFF"/>
<stop offset="1" stop-color="#C7FFFF"/>
</linearGradient>
<linearGradient id="paint1_linear_2_1152" x1="-2.54686" y1="37.2828" x2="17.6852" y2="15.9082" gradientUnits="userSpaceOnUse">
<stop stop-color="#2856FF"/>
<stop offset="1" stop-color="#20C6FF"/>
</linearGradient>
<linearGradient id="paint2_linear_2_1152" x1="29.0794" y1="41.5103" x2="8.84738" y2="20.1357" gradientUnits="userSpaceOnUse">
<stop stop-color="#76E9FF"/>
<stop offset="1" stop-color="#20C6FF"/>
</linearGradient>
<linearGradient id="paint3_linear_2_1152" x1="11.6116" y1="4.84465" x2="31.8437" y2="26.2193" gradientUnits="userSpaceOnUse">
<stop stop-color="#20C6FF" stop-opacity="0"/>
<stop offset="1" stop-color="#20C6FF"/>
</linearGradient>
<linearGradient id="paint4_linear_2_1152" x1="6.01108" y1="15.3576" x2="22.3324" y2="-1.88544" gradientUnits="userSpaceOnUse">
<stop stop-color="#20C6FF" stop-opacity="0"/>
<stop offset="1" stop-color="#20C6FF"/>
</linearGradient>
<linearGradient id="paint5_linear_2_1152" x1="6.01108" y1="20.6403" x2="22.3324" y2="37.8854" gradientUnits="userSpaceOnUse">
<stop stop-color="#20C6FF" stop-opacity="0"/>
<stop offset="1" stop-color="#20C6FF"/>
</linearGradient>
<linearGradient id="paint6_linear_2_1152" x1="34.3406" y1="29.3523" x2="16.4783" y2="18.439" gradientUnits="userSpaceOnUse">
<stop stop-color="white"/>
<stop offset="1" stop-color="white" stop-opacity="0"/>
</linearGradient>
<linearGradient id="paint7_linear_2_1152" x1="-13.3082" y1="39.6293" x2="14.2816" y2="17.438" gradientUnits="userSpaceOnUse">
<stop stop-color="white" stop-opacity="0"/>
<stop offset="1" stop-color="white"/>
</linearGradient>
<clipPath id="clip0_2_1152">
<rect width="31" height="36" fill="white"/>
</clipPath>
</defs>
</svg>
